<?xml version="1.0" standalone="no"?>
<!DOCTYPE svg PUBLIC "-//W3C//DTD SVG 20010904//EN"
 "http://www.w3.org/TR/2001/REC-SVG-20010904/DTD/svg10.dtd">
<svg version="1.0" xmlns="http://www.w3.org/2000/svg"
 width="76.000000pt" height="76.000000pt" viewBox="0 0 76.000000 76.000000"
 preserveAspectRatio="xMidYMid meet">
<metadata>
Created by potrace 1.11, written by Peter Selinger 2001-2013
</metadata>
<g transform="translate(0.000000,76.000000) scale(0.100000,-0.100000)"
fill="#000000" stroke="none">
<path d="M206 400 c-39 -104 -52 -130 -70 -133 -11 -2 4 -4 34 -4 37 -1 46 1
28 6 -26 6 -26 7 -13 39 13 29 18 32 55 32 34 0 42 -4 50 -26 14 -36 13 -42
-12 -47 -13 -2 9 -5 47 -5 46 0 63 2 50 8 -14 6 -32 43 -64 134 -24 69 -46
126 -50 126 -3 0 -28 -58 -55 -130z m52 1 c16 -52 16 -51 -22 -51 l-34 0 17
45 c9 25 19 45 22 45 3 0 11 -17 17 -39z"/>
<path d="M459 520 c-9 -5 -22 -23 -28 -39 -10 -24 -10 -34 3 -59 16 -32 24
-36 89 -47 69 -11 74 -85 7 -100 -36 -8 -75 13 -85 45 -10 33 -25 23 -25 -17
l0 -38 65 -3 c58 -2 68 0 90 22 18 18 25 36 25 64 0 48 -29 77 -87 87 -48 8
-67 25 -58 54 13 42 88 38 107 -5 16 -34 28 -30 28 9 l0 33 -57 2 c-32 1 -65
-3 -74 -8z"/>
</g>
</svg>
